<?xml version="1.0" encoding="UTF-8" standalone="no"?>
<svg
   xmlns:dc="http://purl.org/dc/elements/1.1/"
   xmlns:cc="http://creativecommons.org/ns#"
   xmlns:rdf="http://www.w3.org/1999/02/22-rdf-syntax-ns#"
   xmlns:svg="http://www.w3.org/2000/svg"
   xmlns="http://www.w3.org/2000/svg"
   xmlns:sodipodi="http://sodipodi.sourceforge.net/DTD/sodipodi-0.dtd"
   xmlns:inkscape="http://www.inkscape.org/namespaces/inkscape"
   width="5.2919998mm"
   height="4.7620001mm"
   viewBox="0 0 5.2919998 4.7620001"
   version="1.1"
   id="svg1805"
   inkscape:version="1.0.2 (1.0.2+r75+1)"
   sodipodi:docname="ig-icons.svg">
  <defs
     id="defs1799">
    <clipPath
       id="clip1_0_1">
      <rect
         width="24"
         height="24"
         fill="#ffffff"
         transform="translate(986,910)"
         id="rect941"
         x="0"
         y="0" />
    </clipPath>
  </defs>
  <sodipodi:namedview
     id="base"
     pagecolor="#ffffff"
     bordercolor="#666666"
     borderopacity="1.0"
     inkscape:pageopacity="0.0"
     inkscape:pageshadow="2"
     inkscape:zoom="7.9195959"
     inkscape:cx="16.601558"
     inkscape:cy="15.343486"
     inkscape:document-units="mm"
     inkscape:current-layer="layer1"
     inkscape:document-rotation="0"
     showgrid="false"
     inkscape:window-width="1920"
     inkscape:window-height="1055"
     inkscape:window-x="0"
     inkscape:window-y="0"
     inkscape:window-maximized="1" />
  <metadata
     id="metadata1802">
    <rdf:RDF>
      <cc:Work
         rdf:about="">
        <dc:format>image/svg+xml</dc:format>
        <dc:type
           rdf:resource="http://purl.org/dc/dcmitype/StillImage" />
        <dc:title></dc:title>
      </cc:Work>
    </rdf:RDF>
  </metadata>
  <g
     inkscape:label="Layer 1"
     inkscape:groupmode="layer"
     id="layer1">
    <g
       clip-path="url(#clip1_0_1)"
       id="g114"
       transform="matrix(0.26458333,0,0,0.26458333,-261.40833,-241.56458)">
      <path
         fill-rule="evenodd"
         clip-rule="evenodd"
         d="m 988,916 c 0,-0.796 0.316,-1.559 0.879,-2.121 C 989.441,913.316 990.204,913 991,913 h 14 c 0.8,0 1.56,0.316 2.12,0.879 0.56,0.562 0.88,1.325 0.88,2.121 v 12 c 0,0.796 -0.32,1.559 -0.88,2.121 -0.56,0.563 -1.32,0.879 -2.12,0.879 h -14 c -0.796,0 -1.559,-0.316 -2.121,-0.879 C 988.316,929.559 988,928.796 988,928 Z m 3,-1 c -0.265,0 -0.52,0.105 -0.707,0.293 C 990.105,915.48 990,915.735 990,916 v 12 c 0,0.265 0.105,0.52 0.293,0.707 0.187,0.188 0.442,0.293 0.707,0.293 h 14 c 0.27,0 0.52,-0.105 0.71,-0.293 0.18,-0.187 0.29,-0.442 0.29,-0.707 v -12 c 0,-0.265 -0.11,-0.52 -0.29,-0.707 -0.19,-0.188 -0.44,-0.293 -0.71,-0.293 z m 11,2 c 0,-0.265 0.11,-0.52 0.29,-0.707 0.19,-0.188 0.44,-0.293 0.71,-0.293 h 1 c 0.27,0 0.52,0.105 0.71,0.293 0.18,0.187 0.29,0.442 0.29,0.707 0,0.265 -0.11,0.52 -0.29,0.707 -0.19,0.188 -0.44,0.293 -0.71,0.293 h -1 c -0.27,0 -0.52,-0.105 -0.71,-0.293 -0.18,-0.187 -0.29,-0.442 -0.29,-0.707 z m -7,5 c 0,-0.796 0.316,-1.559 0.879,-2.121 0.562,-0.563 1.325,-0.879 2.121,-0.879 0.796,0 1.559,0.316 2.12,0.879 0.56,0.562 0.88,1.325 0.88,2.121 0,0.796 -0.32,1.559 -0.88,2.121 -0.561,0.563 -1.324,0.879 -2.12,0.879 -0.796,0 -1.559,-0.316 -2.121,-0.879 C 995.316,923.559 995,922.796 995,922 Z m 3,-5 c -1.326,0 -2.598,0.527 -3.536,1.464 -0.937,0.938 -1.464,2.21 -1.464,3.536 0,1.326 0.527,2.598 1.464,3.536 0.938,0.937 2.21,1.464 3.536,1.464 1.326,0 2.6,-0.527 3.54,-1.464 0.93,-0.938 1.46,-2.21 1.46,-3.536 0,-1.326 -0.53,-2.598 -1.46,-3.536 C 1000.6,917.527 999.326,917 998,917 Z"
         fill="#ff9c1a"
         id="path112" />
    </g>
  </g>
</svg>
